<?xml version="1.0" standalone="no"?>
<!DOCTYPE svg PUBLIC "-//W3C//DTD SVG 20010904//EN"
 "http://www.w3.org/TR/2001/REC-SVG-20010904/DTD/svg10.dtd">
<svg version="1.0" xmlns="http://www.w3.org/2000/svg"
 width="700.000000pt" height="700.000000pt" viewBox="0 0 700.000000 700.000000"
 preserveAspectRatio="xMidYMid meet">
<metadata>
Created by potrace 1.11, written by Peter Selinger 2001-2013
</metadata>
<g transform="translate(0.000000,700.000000) scale(0.100000,-0.100000)"
fill="#000000" stroke="none">
<path d="M3452 6383 c-233 -230 -1410 -1394 -1473 -1458 -33 -33 -61 -64 -62
-68 -1 -4 141 -151 316 -327 l319 -318 519 519 c285 285 523 519 527 519 5 0
22 -15 39 -32 17 -18 91 -91 165 -163 74 -71 253 -245 399 -386 145 -141 311
-302 368 -357 l104 -101 129 132 c71 73 211 214 310 315 99 100 179 184 177
187 -24 27 -277 279 -787 783 -867 857 -902 892 -906 892 -2 0 -67 -62 -144
-137z"/>
<path d="M3202 4267 l-361 -362 534 -534 c294 -294 535 -539 535 -544 0 -5
-110 -120 -245 -255 l-246 -246 -154 154 c-85 85 -155 159 -155 163 0 5 41 49
90 98 l91 89 -173 170 c-312 308 -1066 1052 -1231 1213 -89 87 -194 190 -232
228 l-70 69 -101 -98 c-56 -53 -220 -212 -364 -352 -144 -140 -265 -257 -269
-260 -4 -3 -35 -41 -69 -86 -307 -405 -370 -878 -172 -1309 62 -136 88 -167
605 -690 850 -862 988 -999 1050 -1046 193 -145 351 -201 555 -194 162 5 282
46 370 126 83 76 124 113 255 229 72 63 132 118 133 123 10 22 44 -7 172 -147
78 -85 158 -165 178 -177 297 -177 544 -200 802 -73 l95 47 813 816 c836 839
868 874 945 1026 26 53 74 180 81 218 3 12 10 47 16 77 7 30 13 109 15 175 5
241 -73 494 -221 716 -52 78 -57 82 -474 489 -429 418 -400 392 -419 378 -8
-7 -170 -166 -358 -352 -189 -187 -349 -344 -356 -348 -15 -10 -100 -34 -148
-42 -70 -12 -177 -8 -240 10 l-64 18 -411 410 c-226 226 -417 416 -425 423
-13 10 -76 -49 -377 -350z m1562 -1157 c89 -182 89 -330 -1 -504 -34 -65 -102
-136 -797 -835 -419 -420 -781 -784 -806 -809 -134 -135 -309 -190 -472 -147
-57 15 -180 75 -185 91 -2 5 438 450 976 988 l979 979 -443 444 c-244 243
-447 443 -450 443 -4 0 -52 -45 -107 -100 -55 -55 -104 -100 -107 -100 -10 0
-256 261 -256 271 0 5 110 119 245 254 l245 246 571 -573 c544 -545 573 -577
608 -648z m1068 488 l-146 -147 -56 52 c-30 29 -104 98 -163 153 l-107 102
151 149 151 149 157 -155 158 -156 -145 -147z m-4049 201 l57 -53 -213 -215
c-189 -193 -216 -224 -249 -291 -48 -100 -70 -180 -73 -265 -4 -98 9 -158 52
-245 35 -70 67 -105 474 -512 240 -241 439 -438 442 -438 2 0 84 79 180 175
96 96 178 175 182 175 4 0 79 -72 168 -161 l161 -160 -337 -337 -337 -337
-683 686 -683 685 -36 94 c-47 126 -59 184 -63 310 -4 118 11 212 48 310 64
165 108 222 416 533 l265 267 86 -83 c47 -46 111 -108 143 -138z m4332 -196
c125 -124 220 -288 267 -459 28 -104 30 -290 4 -379 -26 -87 -69 -171 -125
-245 -57 -76 -1598 -1618 -1653 -1654 -51 -34 -115 -61 -173 -73 -67 -15 -90
-15 -155 -2 -110 22 -160 59 -393 288 l-217 215 150 150 150 150 190 -190
c105 -104 193 -191 195 -192 2 -2 337 329 744 736 463 463 745 753 754 774 23
55 39 155 41 263 3 137 -37 269 -109 354 l-35 43 126 128 c69 71 133 138 142
149 10 11 18 21 18 21 1 0 37 -35 79 -77z m-3308 -621 c-48 -48 -87 -91 -87
-95 0 -4 180 -187 400 -407 l400 -400 -156 -155 -156 -155 -404 404 c-386 386
-406 408 -438 478 -47 103 -59 165 -53 267 8 146 71 269 200 394 l70 69 156
-156 156 -156 -88 -88z"/>
</g>
</svg>
